<svg width="13" height="13" viewBox="0 0 13 13" fill="none" xmlns="http://www.w3.org/2000/svg">
<g clip-path="url(#clip0_110_1121)">
<path d="M4.68164 10.561H10.6816C10.9469 10.561 11.2012 10.4557 11.3887 10.2681C11.5763 10.0806 11.6816 9.82625 11.6816 9.56104V8.56104H5.68164V9.56104C5.68164 9.82625 5.57628 10.0806 5.38875 10.2681C5.20121 10.4557 4.94686 10.561 4.68164 10.561ZM4.68164 10.561C4.41642 10.561 4.16207 10.4557 3.97453 10.2681C3.787 10.0806 3.68164 9.82625 3.68164 9.56104V2.56104C3.68164 2.29582 3.57628 2.04146 3.38875 1.85393C3.20121 1.66639 2.94686 1.56104 2.68164 1.56104C2.41642 1.56104 2.16207 1.66639 1.97453 1.85393C1.787 2.04146 1.68164 2.29582 1.68164 2.56104V4.06104H3.68164" stroke="#606060" stroke-linecap="round" stroke-linejoin="round"/>
<path d="M10.1816 8.56104V2.56104C10.1816 2.29582 10.0763 2.04146 9.88875 1.85393C9.70121 1.66639 9.44686 1.56104 9.18164 1.56104H2.68164" stroke="#606060" stroke-linecap="round" stroke-linejoin="round"/>
<path d="M8.18164 4.06104H5.68164" stroke="#606060" stroke-linecap="round" stroke-linejoin="round"/>
<path d="M8.18164 6.06104H5.68164" stroke="#606060" stroke-linecap="round" stroke-linejoin="round"/>
</g>
<defs>
<clipPath id="clip0_110_1121">
<rect width="12" height="12" fill="white" transform="translate(0.681641 0.0610352)"/>
</clipPath>
</defs>
</svg>
