<svg width="13" height="13" viewBox="0 0 13 13" fill="none" xmlns="http://www.w3.org/2000/svg">
<g clip-path="url(#clip0_110_1129)">
<path d="M3.68457 6.02002C3.68457 5.35698 3.94796 4.72109 4.4168 4.25225C4.88564 3.78341 5.52153 3.52002 6.18457 3.52002C6.84761 3.52002 7.4835 3.78341 7.95234 4.25225C8.42118 4.72109 8.68457 5.35698 8.68457 6.02002V9.02002H3.68457V6.02002Z" stroke="#606060" stroke-linecap="round" stroke-linejoin="round"/>
<path d="M2.68457 10.02C2.68457 9.7548 2.78993 9.50045 2.97746 9.31291C3.165 9.12538 3.41935 9.02002 3.68457 9.02002H8.68457C8.94979 9.02002 9.20414 9.12538 9.39168 9.31291C9.57921 9.50045 9.68457 9.7548 9.68457 10.02V11.02H2.68457V10.02Z" stroke="#606060" stroke-linecap="round" stroke-linejoin="round"/>
<path d="M10.6846 6.02002H11.1846" stroke="#606060" stroke-linecap="round" stroke-linejoin="round"/>
<path d="M9.43457 2.27002L9.18457 2.52002" stroke="#606060" stroke-linecap="round" stroke-linejoin="round"/>
<path d="M1.18457 6.02002H1.68457" stroke="#606060" stroke-linecap="round" stroke-linejoin="round"/>
<path d="M6.18457 1.02002V1.52002" stroke="#606060" stroke-linecap="round" stroke-linejoin="round"/>
<path d="M2.64908 2.48462L3.00258 2.83812" stroke="#606060" stroke-linecap="round" stroke-linejoin="round"/>
<path d="M6.18457 6.02002V9.02002" stroke="#606060" stroke-linecap="round" stroke-linejoin="round"/>
</g>
<defs>
<clipPath id="clip0_110_1129">
<rect width="12" height="12" fill="white" transform="translate(0.18457 0.0200195)"/>
</clipPath>
</defs>
</svg>
